<svg width="33" height="35" viewBox="0 0 33 35" fill="none" xmlns="http://www.w3.org/2000/svg">
<path fill-rule="evenodd" clip-rule="evenodd" d="M32.1524 35C31.7003 35 31.3048 34.6124 31.3048 34.1694C31.3048 26.1954 24.6935 19.6612 16.5 19.6612C8.30651 19.6612 1.69521 26.1401 1.69521 34.1694C1.69521 34.6124 1.29966 35 0.847603 35C0.395548 35 0 34.6124 0 34.1694C0 25.2541 7.4024 18 16.5 18C25.5976 18 33 25.2541 33 34.1694C33 34.6124 32.661 35 32.1524 35Z" fill="black"/>
<path fill-rule="evenodd" clip-rule="evenodd" d="M16.4436 18.7603C11.245 18.7603 7.06348 14.5223 7.06348 9.38014C7.06348 4.23801 11.3015 0 16.4436 0C21.6422 0 25.8237 4.23801 25.8237 9.38014C25.8237 14.5223 21.5857 18.7603 16.4436 18.7603ZM16.4435 1.69521C12.2055 1.69521 8.75859 5.14212 8.75859 9.38014C8.75859 13.6182 12.149 17.0651 16.4435 17.0651C20.6815 17.0651 24.1285 13.6182 24.1285 9.38014C24.1285 5.14212 20.6815 1.69521 16.4435 1.69521Z" fill="black"/>
</svg>
